<?xml version="1.0" encoding="utf-8"?>
<!-- Generator: Adobe Illustrator 17.0.0, SVG Export Plug-In . SVG Version: 6.00 Build 0)  -->
<!DOCTYPE svg PUBLIC "-//W3C//DTD SVG 1.1//EN" "http://www.w3.org/Graphics/SVG/1.1/DTD/svg11.dtd">
<svg version="1.1" id="Layer_1" xmlns="http://www.w3.org/2000/svg" xmlns:xlink="http://www.w3.org/1999/xlink" x="0px" y="0px"
	 width="1200px" height="1200px" viewBox="0 0 1200 1200" enable-background="new 0 0 1200 1200" xml:space="preserve">
<g>
	<path opacity="0.6" fill="#555454" d="M642.523,1117.115c0,0,100.026,22.387,31.05,28.176c-68.992,5.827-96.134,7.127-128.69-1.189
		c-32.566-8.328,9.592-57.37-96.534-52.234c-106.112,5.148-222.107,10.753-222.107,10.753s-35.75-22.996,3.741-24.912
		c39.49-1.914,64.644,6.754,86.858,5.688c22.211-1.075,98.399-15.38,170.281-8.246
		C558.997,1082.306,642.523,1117.115,642.523,1117.115z"/>
	<g>
		<g>
			<path fill="#996361" d="M936.657,360.781c0,0-28.054,72.375-25.188,99.057c2.868,26.695,0.208,69.436,0.973,85.181
				c0.762,15.744-13.755,41.696-23.067,45.304c-9.286,3.608-25.496-5.078-25.496-5.078s-2.328-15.654,0.206-28.401
				c2.541-12.767,4.999-27.087,13.616-44.865c8.604-17.774,2.214-52.184,2.214-52.184s7.279-77.692,11.999-77.922
				C896.64,381.643,936.657,360.781,936.657,360.781z"/>
			<path fill="#684441" d="M863.879,585.245c0,0,8.538-19.354,17.987-19.814c-4.145-20.314,0.582-20.542,0.582-20.542
				S858.401,569.739,863.879,585.245z"/>
		</g>
		<path fill="#996361" d="M463.607,727.715c0,0-10.375,46.256-27.772,45.524c-17.405-0.723-32.029-9.491-59.967,32.89
			c-27.933,42.381-39.616,61.883-39.616,61.883s-1.632,31.635,12.477,29.387c14.086-2.261,52.078-32.511,81.611-41.827
			c29.535-9.326,56.392-9.036,78.711-36.957c22.312-27.899,54.005-57.83,54.005-57.83L463.607,727.715z"/>
		<path fill="#996361" d="M743.975,748.858c1.872,6.238,4.142,20.304,3.103,31.41c-1.045,11.091-6.968,19.274-6.968,19.274
			s-53.344,38.887-70.265,80.742c-16.91,41.856-30.24,59.86-30.24,59.86l42.99,40.527c0,0,40.834-36.699,72.459-68.208
			c31.611-31.519,40.659-72.976,58.63-92.803c17.984-19.814,37.989-30.229,46.88-74.839c8.879-44.635-4.34-89.785-18.739-93.818
			c-14.396-4.029-28.807-8.068-47.389-0.86c-18.593,7.218-42.582,0.495-50.89,24.561c-8.309,24.073-12.494,35.318-13.693,43.266
			C728.667,725.927,743.975,748.858,743.975,748.858z"/>
		<path fill="#360400" d="M348.729,897.399c6.517,4.427,23.761,2.008-3.365,28.58c-27.116,26.559-44.254,63.683-48.529,73.37
			c-4.255,9.67-38.417,53.926-62.575,44.045c-24.143-9.867-41.265-37.444-2.607-86.675c38.652-49.203,49.518-52.902,58.125-70.678
			c8.614-17.764,30.116-29.875,46.474-18.029C349.764,886.306,348.729,897.399,348.729,897.399z"/>
		<path fill="#360400" d="M649.933,925.438l-58.201,69.097c0,0-12.873,27.46-31.387,36.248
			c-18.512,8.786-49.478,21.312-43.756,41.565c5.723,20.244,2.919,27.647,57.456,45.531c54.516,17.865,84.149,14.553,96.15,1.364
			c11.974-13.202,40.713-40.577-9.546-57.963c-2.479-18.813,1.356-49.61,14.763-66.056c13.406-16.434,24.122-23.251,28.783-25.081
			c4.645-1.795-3.11-31.419-22.38-38.362C662.542,924.824,649.933,925.438,649.933,925.438z"/>
		<path fill="#461E00" d="M516.589,1072.349c0,0,41.618,13.012,62.168,12.78c33.386-0.394,115.115-20.158,101.004,18.234
			c-9.682,26.356-32.497,29.216-59.491,25.772C593.267,1125.717,515.19,1108.727,516.589,1072.349z"/>
		<path fill="#F39041" d="M991.043,277.658c-3.107-31.41-27.711-50.743-76.707-84.676c-43.194-12.111-92.377-17.63-92.377-17.63
			s-47.014,7.008-75.935,28.941c8.392,10.635,39.844,40.68,20.009,87.4c-19.834,46.734-48.331,44.966-48.331,44.966l-29.764,4.588
			l-32.147,55.487l-18.079,47.953c0,0,21.295,57.646,62.988,81.527c105.976,60.71,163.742,5.348,163.742,5.348
			s18.678-70.351,34.636-99.526c0,0,16.339-21.312,18.952-32.484c2.61-11.172,25.668-56.476,40.953-66.692
			C974.282,322.654,992.754,295.203,991.043,277.658z"/>
		<path fill="#360400" d="M864.443,531.562c0,0-15.999,60.745-9.749,92.014c6.244,31.244,9.265,61.084,14.75,76.609
			c5.494,15.515,14.424,37.182-8.879,44.635c-3.254-34.589-0.211-69.441-41.448-73.764c-41.243-4.334-51.965,2.518-63.641,22.022
			c-11.681,19.504-17.445,30.818-12.262,40.046c5.178,9.226,2.634,21.973,2.634,21.973s-32.049-42.635-32.735-56.81
			c-0.688-14.176-23.491-28.85-23.491-28.85s5.869,23.392-41.949,46.223c-47.826,22.812-47.519,29.121-58.151,37.516
			c-10.652,8.417-15.147,13.366-15.147,13.366s-20.622-2.149-36.139,3.324c-15.51,5.484-57.412,20.15-74.628-42.151
			c45.22-76.359,71.127-128.106,82.737-149.199c11.596-21.073,11.517-22.642,37.073-49.139
			c25.537-26.487,38.501-52.361,54.296-84.691c13.383,32.423,60.031,66.328,76.847,72.269
			C778.626,539.618,838.944,543.869,864.443,531.562z"/>
		<g>
			<path fill="#855654" d="M825.377,148.372l-6.269,33.443c0,0,4.68,31.335,21.33,49.468c16.662,18.13,39.388,31.241,39.388,31.241
				s22.929-15.327,26.968-29.729c4.046-14.386,7.542-39.813,7.542-39.813l-66.378-34.663L825.377,148.372z"/>
			<path fill="#996361" d="M925.21,91.462c0,0,16.959,24.422,7.464,56.456c-9.498,32.019-14.04,68.541-39.152,71.33
				c-25.113,2.79-52.355-5.358-58.31-63.46c-10.944,2.1-28.372-31.778-22.307-36.796c13.844-11.475,8.761-14.636,19.482-21.456
				c10.717-6.844,32.964-36.323,32.964-36.323l64.394,1.313L925.21,91.462z"/>
			<path fill="#2B1F25" d="M848.131,82.251c0,0,28.649-3.939,39.185-2.952c34.146,3.204,37.894,12.163,37.894,12.163
				s19.71-16.744,4.774-31.794c-14.939-15.06-47.745-7.833-65.147-8.561c-17.39-0.75-30.393,11.606-41.158,27.48
				c-7.955,11.722-4.861,2.528-9.053,13.787c-4.187,11.255-1.417,20.711-1.417,20.711l-0.302,5.908c0,0,7.564-6.683,14.557,7.178
				c6.985,13.871,7.75,29.618,7.75,29.618s-2.568-37.456,3.199-48.782C844.179,95.681,836.433,91.321,848.131,82.251z"/>
			<path fill="#2B1F25" d="M887.113,192.273l27.223,0.709C914.337,192.982,904.41,201.4,887.113,192.273z"/>
		</g>
		<path fill="#996361" d="M746.025,204.294c0,0-39.87,24.021-57.396,53.27c-17.524,29.251-13.845,40.133-32.2,52.065
			c-18.363,11.935-14.996,16.513-28.161,37.662c-13.191,21.156-21.563,43.664-50.946,56.131
			c-29.38,12.46-44.061,35.271-75.456,71.511c-31.39,36.236-48.094,49.671-83.168,75.044c-35.065,25.372-55.134,67.376-54.062,89.43
			c1.064,22.033,10.895,29.449,10.895,29.449s-2.949-28.27,2.892-38.018c5.837-9.751,4.058,18.739,4.058,18.739
			s2.83-39.586,14.738-54.356c11.911-14.795,52.697-19.933,52.697-19.933s30.654-18.834,56.876-31.135
			c26.243-12.336,85.671-56.25,109.269-90.535c23.578-34.277,52.658-53.041,74.829-84.094c22.55-23.199,31.383-30.696,39.172-35.066
			c11.147-6.257,15.293-13.349,15.293-13.349S806.133,272.399,746.025,204.294z"/>
		<g>
			<path fill="#BE3E35" d="M558.619,639.695c-2.29-47.388-42.575-83.941-89.963-81.651c-47.391,2.3-83.951,42.565-81.657,89.96
				c2.291,47.383,42.572,83.956,89.962,81.661C524.349,727.367,560.917,687.084,558.619,639.695z"/>
			<g>
				<path fill="#852D22" d="M518.644,570.904l-4.476-1.765c-72.036,49.294-86.013,144.116-86.741,148.3l5.489,1.34
					C433.086,717.788,443.702,618.524,518.644,570.904z"/>
				<path fill="#852D22" d="M419.681,606.986c11.026-23.461,37.907-39.445,68.125-48.324l-5.943-1.469
					c-32.236,9.468-52.608,25.197-65.321,50.144c-23.486,46.103-9.045,91.563-8.22,93.858l4.321,2.929
					C412.458,703.585,396.636,655.999,419.681,606.986z"/>
				<path fill="#852D22" d="M546.402,598.894c-25.115,97.761-89.923,129.313-90.528,129.531l2.463,0.431
					c2.617-0.969,64.481-24.813,90.621-126.546L546.402,598.894z"/>
			</g>
			<path opacity="0.31" fill="#852D22" d="M522.041,576.977c0,0,16.293,53.042-24.043,91.934
				c-40.545,39.086-88.388,27.495-88.388,27.495s42.715,53.883,99.253,22.644C565.411,687.804,567.702,604.318,522.041,576.977z"/>
		</g>
	</g>
	<path fill="#2B1F25" d="M897.683,174.739c0,0,13.453,1.441,15.134,0c1.681-1.441,2.402-0.723,1.681,0.719
		C913.776,176.901,910.412,178.582,897.683,174.739z"/>
	<path fill="#2B1F25" d="M891.897,131.403c0,0-8.589-2.291-17.177-2.291c-8.589,0-6.297,4.581-4.007,4.009
		c2.29-0.572,7.445,3.434,12.024,4.579s10.88-2.29,12.024,2.863C895.905,145.717,898.196,131.977,891.897,131.403z"/>
	<path fill="#2B1F25" d="M912.512,139.418c0,0-2.862-5.727,6.871-6.871c9.732-1.144,6.867,0.002,4.006,2.291
		S912.512,139.418,912.512,139.418z"/>
</g>
</svg>
